<svg
  xmlns="http://www.w3.org/2000/svg"
  viewBox="0 0 1200 340"
  width="1200"
  height="340"
  role="img"
  aria-label="poly - universal linter and formatter"
>
  <title>poly - universal linter and formatter</title>
  <defs>
    <radialGradient
      id="gb"
      gradientUnits="userSpaceOnUse"
      cx="450"
      cy="150"
      r="430"
      gradientTransform="translate(450 150) scale(1 0.5) translate(-450 -150)"
    >
      <stop offset="0%" stop-color="#5b8def" stop-opacity="0.14" />
      <stop offset="70%" stop-color="#5b8def" stop-opacity="0" />
    </radialGradient>
    <radialGradient
      id="gg"
      gradientUnits="userSpaceOnUse"
      cx="750"
      cy="150"
      r="430"
      gradientTransform="translate(750 150) scale(1 0.5) translate(-750 -150)"
    >
      <stop offset="0%" stop-color="#3ddc97" stop-opacity="0.14" />
      <stop offset="70%" stop-color="#3ddc97" stop-opacity="0" />
    </radialGradient>
    <radialGradient
      id="vg"
      gradientUnits="userSpaceOnUse"
      cx="600"
      cy="170"
      r="660"
      gradientTransform="translate(600 170) scale(1 0.62) translate(-600 -170)"
    >
      <stop offset="58%" stop-color="#05070d" stop-opacity="0" />
      <stop offset="100%" stop-color="#05070d" stop-opacity="0.62" />
    </radialGradient>
    <linearGradient id="wordmark" gradientUnits="userSpaceOnUse" x1="238" y1="0" x2="594" y2="0">
      <stop offset="0%" stop-color="#5b8def" />
      <stop offset="100%" stop-color="#3ddc97" />
    </linearGradient>
    <linearGradient id="rule" x1="0" y1="0" x2="1" y2="0">
      <stop offset="0%" stop-color="#5b8def" stop-opacity="0" />
      <stop offset="48%" stop-color="#5b8def" stop-opacity="0.78" />
      <stop offset="52%" stop-color="#3ddc97" stop-opacity="0.78" />
      <stop offset="100%" stop-color="#3ddc97" stop-opacity="0" />
    </linearGradient>
    <clipPath id="clip"><rect width="1200" height="340" rx="18" /></clipPath>
  </defs>
  <g clip-path="url(#clip)">
    <rect width="1200" height="340" fill="#080b13" />
    <rect width="1200" height="340" fill="url(#gb)" />
    <rect width="1200" height="340" fill="url(#gg)" />
    <rect width="1200" height="340" fill="url(#vg)" />
    <g transform="translate(184 0)">
      <path
        d="M238 72h16v16h-16zM254 72h16v16h-16zM270 72h16v16h-16zM286 72h16v16h-16zM238 88h16v16h-16zM302 88h16v16h-16zM238 104h16v16h-16zM302 104h16v16h-16zM238 120h16v16h-16zM254 120h16v16h-16zM270 120h16v16h-16zM286 120h16v16h-16zM238 136h16v16h-16zM238 152h16v16h-16zM238 168h16v16h-16zM346 72h16v16h-16zM362 72h16v16h-16zM378 72h16v16h-16zM330 88h16v16h-16zM394 88h16v16h-16zM330 104h16v16h-16zM394 104h16v16h-16zM330 120h16v16h-16zM394 120h16v16h-16zM330 136h16v16h-16zM394 136h16v16h-16zM330 152h16v16h-16zM394 152h16v16h-16zM346 168h16v16h-16zM362 168h16v16h-16zM378 168h16v16h-16zM422 72h16v16h-16zM422 88h16v16h-16zM422 104h16v16h-16zM422 120h16v16h-16zM422 136h16v16h-16zM422 152h16v16h-16zM422 168h16v16h-16zM438 168h16v16h-16zM454 168h16v16h-16zM470 168h16v16h-16zM486 168h16v16h-16zM514 72h16v16h-16zM578 72h16v16h-16zM514 88h16v16h-16zM578 88h16v16h-16zM530 104h16v16h-16zM562 104h16v16h-16zM546 120h16v16h-16zM546 136h16v16h-16zM546 152h16v16h-16zM546 168h16v16h-16z"
        fill="url(#wordmark)"
      />
    </g>
    <rect x="420" y="220" width="360" height="4" fill="url(#rule)" />
    <text
      x="600"
      y="276"
      text-anchor="middle"
      font-family="ui-monospace, Menlo, Consolas, monospace"
      font-size="23"
      font-weight="700"
      fill="#8b97a8"
    >LINT + FORMAT FROM ONE RUST PIPELINE</text>
  </g>
</svg>
